<svg xmlns="http://www.w3.org/2000/svg" xmlns:xlink="http://www.w3.org/1999/xlink" width="500" zoomAndPan="magnify" viewBox="0 0 375 374.999991" height="500" preserveAspectRatio="xMidYMid meet" version="1.0"><defs><clipPath id="132f3c3ec1"><path d="M 54 111 L 337.75 111 L 337.75 276.792969 L 54 276.792969 Z M 54 111 " clip-rule="nonzero"/></clipPath><clipPath id="7d1f41c908"><path d="M 54.296875 111 L 337.75 111 L 337.75 276.792969 L 54.296875 276.792969 Z M 54.296875 111 " clip-rule="nonzero"/></clipPath><clipPath id="9a441cfeda"><path d="M 90.164062 154.890625 L 90.164062 242.238281 L 117.644531 242.238281 C 124.878906 242.238281 131.5 241.097656 137.503906 238.816406 C 143.507812 236.53125 148.628906 233.257812 152.859375 228.996094 C 155.617188 226.222656 157.980469 223.128906 159.953125 219.714844 C 160.960938 223.320312 162.199219 226.851562 163.667969 230.304688 C 167.207031 238.640625 171.808594 246.164062 177.476562 252.875 C 170.320312 259.105469 161.960938 264.082031 152.402344 267.808594 C 141.851562 271.917969 130.265625 273.972656 117.644531 273.972656 L 54.597656 273.972656 L 54.597656 154.890625 Z M 152.402344 120.210938 C 162.945312 124.242188 172.027344 129.839844 179.648438 136.992188 C 181.453125 138.683594 183.160156 140.449219 184.769531 142.289062 C 189.960938 148.199219 194.140625 154.84375 197.316406 162.21875 C 201.472656 171.882812 203.546875 182.347656 203.546875 193.609375 L 203.546875 194.066406 C 203.546875 200.917969 204.742188 207.386719 207.128906 213.472656 C 209.515625 219.5625 212.902344 224.890625 217.289062 229.453125 C 221.679688 234.019531 226.835938 237.636719 232.761719 240.296875 C 238.691406 242.960938 245.269531 244.296875 252.503906 244.296875 C 259.589844 244.296875 266.132812 243 272.132812 240.414062 C 278.136719 237.824219 283.261719 234.25 287.492188 229.679688 C 291.726562 225.113281 295.039062 219.824219 297.421875 213.816406 C 298.769531 210.421875 299.734375 206.898438 300.324219 203.234375 C 300.777344 200.410156 301.003906 197.503906 301.003906 194.519531 L 301.003906 194.066406 C 301.003906 187.214844 299.808594 180.75 297.421875 174.660156 C 295.039062 168.574219 291.652344 163.246094 287.261719 158.679688 C 282.871094 154.109375 277.679688 150.5 271.671875 147.832031 C 265.671875 145.167969 259.128906 143.835938 252.046875 143.835938 C 244.808594 143.835938 238.226562 145.132812 232.300781 147.71875 C 226.371094 150.304688 221.292969 153.882812 217.0625 158.449219 C 214.394531 161.324219 212.09375 164.480469 210.164062 167.929688 C 209.175781 164.503906 207.980469 161.160156 206.578125 157.894531 C 202.871094 149.277344 197.953125 141.539062 191.820312 134.679688 C 199.214844 127.640625 207.933594 122.058594 217.984375 117.925781 C 228.53125 113.589844 240.039062 111.417969 252.503906 111.417969 C 264.980469 111.417969 276.449219 113.589844 286.914062 117.925781 C 297.382812 122.265625 306.429688 128.125 314.050781 135.503906 C 321.671875 142.886719 327.597656 151.5625 331.828125 161.535156 C 336.066406 171.503906 338.183594 182.195312 338.183594 193.609375 L 338.183594 194.066406 C 338.183594 197.175781 338.019531 200.230469 337.699219 203.234375 C 336.847656 211.253906 334.855469 218.890625 331.714844 226.144531 C 327.40625 236.117188 321.4375 244.863281 313.820312 252.398438 C 306.195312 259.933594 297.117188 265.871094 286.570312 270.207031 C 276.023438 274.546875 264.515625 276.714844 252.046875 276.714844 C 239.578125 276.714844 228.109375 274.546875 217.636719 270.207031 C 207.167969 265.871094 198.121094 260.007812 190.503906 252.628906 C 188.339844 250.53125 186.308594 248.328125 184.417969 246.019531 C 179.648438 240.210938 175.75 233.738281 172.71875 226.601562 C 168.488281 216.628906 166.371094 205.941406 166.371094 194.523438 L 166.371094 194.066406 C 166.371094 187.066406 165.179688 180.597656 162.792969 174.660156 C 160.402344 168.722656 157.097656 163.625 152.859375 159.367188 C 148.628906 155.101562 143.507812 151.792969 137.503906 149.429688 C 131.5 147.074219 124.878906 145.894531 117.644531 145.894531 L 100.246094 145.894531 L 100.246094 114.160156 L 117.644531 114.160156 C 130.265625 114.160156 141.851562 116.175781 152.402344 120.210938 Z M 152.402344 120.210938 " clip-rule="nonzero"/></clipPath><clipPath id="53f1b51dff"><path d="M 37 98.292969 L 55 98.292969 L 55 115 L 37 115 Z M 37 98.292969 " clip-rule="nonzero"/></clipPath></defs><rect x="-37.5" width="450" fill="#ffffff" y="-37.499999" height="449.999989" fill-opacity="1"/><rect x="-37.5" width="450" fill="#ffffff" y="-37.499999" height="449.999989" fill-opacity="1"/><g clip-path="url(#132f3c3ec1)"><path fill="#7f3f98" d="M 90.164062 154.890625 L 90.164062 242.238281 L 117.644531 242.238281 C 124.878906 242.238281 131.5 241.097656 137.503906 238.816406 C 143.507812 236.53125 148.628906 233.257812 152.859375 228.996094 C 155.617188 226.222656 157.980469 223.128906 159.953125 219.714844 C 160.960938 223.320312 162.199219 226.851562 163.667969 230.304688 C 167.207031 238.640625 171.808594 246.164062 177.476562 252.875 C 170.320312 259.105469 161.960938 264.082031 152.402344 267.808594 C 141.851562 271.917969 130.265625 273.972656 117.644531 273.972656 L 54.597656 273.972656 L 54.597656 154.890625 Z M 152.402344 120.210938 C 162.945312 124.242188 172.027344 129.839844 179.648438 136.992188 C 181.453125 138.683594 183.160156 140.449219 184.769531 142.289062 C 189.960938 148.199219 194.140625 154.84375 197.316406 162.21875 C 201.472656 171.882812 203.546875 182.347656 203.546875 193.609375 L 203.546875 194.066406 C 203.546875 200.917969 204.742188 207.386719 207.128906 213.472656 C 209.515625 219.5625 212.902344 224.890625 217.289062 229.453125 C 221.679688 234.019531 226.835938 237.636719 232.761719 240.296875 C 238.691406 242.960938 245.269531 244.296875 252.503906 244.296875 C 259.589844 244.296875 266.132812 243 272.132812 240.414062 C 278.136719 237.824219 283.261719 234.25 287.492188 229.679688 C 291.726562 225.113281 295.039062 219.824219 297.421875 213.816406 C 298.769531 210.421875 299.734375 206.898438 300.324219 203.234375 C 300.777344 200.410156 301.003906 197.503906 301.003906 194.519531 L 301.003906 194.066406 C 301.003906 187.214844 299.808594 180.75 297.421875 174.660156 C 295.039062 168.574219 291.652344 163.246094 287.261719 158.679688 C 282.871094 154.109375 277.679688 150.5 271.671875 147.832031 C 265.671875 145.167969 259.128906 143.835938 252.046875 143.835938 C 244.808594 143.835938 238.226562 145.132812 232.300781 147.71875 C 226.371094 150.304688 221.292969 153.882812 217.0625 158.449219 C 214.394531 161.324219 212.09375 164.480469 210.164062 167.929688 C 209.175781 164.503906 207.980469 161.160156 206.578125 157.894531 C 202.871094 149.277344 197.953125 141.539062 191.820312 134.679688 C 199.214844 127.640625 207.933594 122.058594 217.984375 117.925781 C 228.53125 113.589844 240.039062 111.417969 252.503906 111.417969 C 264.980469 111.417969 276.449219 113.589844 286.914062 117.925781 C 297.382812 122.265625 306.429688 128.125 314.050781 135.503906 C 321.671875 142.886719 327.597656 151.5625 331.828125 161.535156 C 336.066406 171.503906 338.183594 182.195312 338.183594 193.609375 L 338.183594 194.066406 C 338.183594 197.175781 338.019531 200.230469 337.699219 203.234375 C 336.847656 211.253906 334.855469 218.890625 331.714844 226.144531 C 327.40625 236.117188 321.4375 244.863281 313.820312 252.398438 C 306.195312 259.933594 297.117188 265.871094 286.570312 270.207031 C 276.023438 274.546875 264.515625 276.714844 252.046875 276.714844 C 239.578125 276.714844 228.109375 274.546875 217.636719 270.207031 C 207.167969 265.871094 198.121094 260.007812 190.503906 252.628906 C 188.339844 250.53125 186.308594 248.328125 184.417969 246.019531 C 179.648438 240.210938 175.75 233.738281 172.71875 226.601562 C 168.488281 216.628906 166.371094 205.941406 166.371094 194.523438 L 166.371094 194.066406 C 166.371094 187.066406 165.179688 180.597656 162.792969 174.660156 C 160.402344 168.722656 157.097656 163.625 152.859375 159.367188 C 148.628906 155.101562 143.507812 151.792969 137.503906 149.429688 C 131.5 147.074219 124.878906 145.894531 117.644531 145.894531 L 100.246094 145.894531 L 100.246094 114.160156 L 117.644531 114.160156 C 130.265625 114.160156 141.851562 116.175781 152.402344 120.210938 Z M 152.402344 120.210938 " fill-opacity="1" fill-rule="evenodd"/></g><g clip-path="url(#7d1f41c908)"><g clip-path="url(#9a441cfeda)"><path fill="#000000" d="M 54.597656 111.417969 L 338.179688 111.417969 L 338.179688 276.714844 L 54.597656 276.714844 Z M 54.597656 111.417969 " fill-opacity="1" fill-rule="nonzero"/></g></g><path fill="#000000" d="M 54.597656 114.160156 L 90.164062 114.160156 L 90.164062 145.894531 L 54.597656 145.894531 Z M 54.597656 114.160156 " fill-opacity="1" fill-rule="evenodd"/><g clip-path="url(#53f1b51dff)"><path fill="#000000" d="M 36.820312 98.292969 L 54.597656 98.292969 L 54.597656 114.160156 L 36.820312 114.160156 Z M 36.820312 98.292969 " fill-opacity="1" fill-rule="evenodd"/></g></svg>